<svg xmlns="http://www.w3.org/2000/svg" aria-hidden="true" fill="none" focusable="false" width="24" height="24" class="header__nav-icon icon icon-cart" viewBox="0 0 298 494">
        <path fill="currentColor" stroke="currentColor" d="m66.4 126.53.03.47h1.27a6.53 6.53 0 0 1 2.1 4.7v60c0 .23.07.49.16.74.1.27.22.58.39.92.32.69.78 1.54 1.33 2.5a255.52 255.52 0 0 0 4 6.72c1.44 2.42 2.89 4.85 3.97 6.88.54 1.01.98 1.91 1.29 2.66.32.76.46 1.29.46 1.58v259.6c0 3.75-3.5 6.92-8.57 7.6l-.43.06v5.64h4.5c2.44 0 4.2 1.58 4.2 3.2s-1.76 3.2-4.2 3.2H5.1c-2.44 0-4.2-1.58-4.2-3.2s1.76-3.2 4.2-3.2h4.7v-5.64l-.44-.06c-4.85-.58-8.36-3.84-8.36-7.6V213.7c0-.32.14-.85.46-1.61.3-.74.75-1.62 1.3-2.62 1.07-1.98 2.51-4.34 3.97-6.7l.34-.56c1.33-2.16 2.65-4.3 3.65-6.08.55-.97 1.01-1.85 1.34-2.59.31-.7.54-1.36.54-1.84v-60c0-1.78.77-3.4 2.1-4.7h1.27l.03-.47c1.9-31.29 5.35-62.76 9.8-86.41 2.23-11.83 4.71-21.68 7.36-28.56 1.33-3.44 2.7-6.1 4.07-7.91C38.62 1.84 39.95 1 41.2 1s2.58.84 3.97 2.65c1.38 1.8 2.75 4.47 4.08 7.91 2.66 6.88 5.15 16.73 7.38 28.56 4.47 23.65 7.92 55.12 9.77 86.41ZM41.67 6.17l-.87-.97v1.3c0 7.7-.06 15.83-.13 26.82-.13 18.6-.3 45.38-.37 91.98v.5h21.63l-.03-.53c-2.1-34.57-5.58-62.56-9.3-82.79-1.87-10.1-3.8-18.28-5.66-24.37a69 69 0 0 0-2.71-7.56 17.13 17.13 0 0 0-2.56-4.38ZM45.5 131.4H45v57.3c0 1.04 1.1 2.1 2.62 2H62.9c.73 0 1.34-.27 1.78-.64.41-.36.72-.86.72-1.36v-57.3H45.5ZM75.6 489c0-1-.85-1.7-1.7-1.7H51.1c-1 0-1.7.85-1.7 1.7 0 1 .85 1.7 1.7 1.7h22.8c1 0 1.7-.85 1.7-1.7Zm-27-16.4c0 1.78 1.42 3.2 3.2 3.2h21.4c1.78 0 3.2-1.42 3.2-3.2V213.8c0-1.78-1.42-3.2-3.2-3.2H51.8a3.19 3.19 0 0 0-3.2 3.2v258.8Zm126.9-346.07.03.47h1.27a6.53 6.53 0 0 1 2.1 4.7v60c0 .23.07.49.16.74.1.27.22.58.39.92.32.69.78 1.54 1.33 2.5a254.58 254.58 0 0 0 4 6.72c1.44 2.42 2.89 4.85 3.97 6.88.54 1.01.98 1.91 1.29 2.66.32.76.46 1.29.46 1.58v259.6c0 3.75-3.5 6.92-8.57 7.6l-.43.06v5.64h4.5c2.44 0 4.2 1.58 4.2 3.2s-1.76 3.2-4.2 3.2h-71.8c-2.44 0-4.2-1.58-4.2-3.2s1.76-3.2 4.2-3.2h4.7v-5.64l-.44-.06c-4.85-.58-8.36-3.84-8.36-7.6V213.7c0-.32.14-.85.46-1.61.3-.74.75-1.62 1.3-2.62a157.5 157.5 0 0 1 4.31-7.26c1.33-2.16 2.65-4.3 3.65-6.08.55-.97 1.01-1.85 1.34-2.59.31-.7.54-1.36.54-1.84v-60c0-1.78.77-3.4 2.1-4.7h1.27l.03-.47c1.9-31.29 5.35-62.76 9.8-86.41 2.23-11.83 4.71-21.68 7.36-28.56 1.33-3.44 2.7-6.1 4.07-7.91C147.72 1.84 149.05 1 150.3 1s2.58.84 3.97 2.65c1.38 1.8 2.75 4.47 4.08 7.91 2.66 6.88 5.15 16.73 7.38 28.56 4.47 23.65 7.92 55.12 9.77 86.41ZM150.87 6.17 150 5.2v1.3c0 7.16-.06 14.7-.14 24.59l-.11 14.78c-.13 17.85-.25 42.38-.25 79.43v.5h21.63l-.03-.53c-2.1-34.57-5.58-62.56-9.3-82.79-1.87-10.1-3.8-18.28-5.66-24.37a69.09 69.09 0 0 0-2.71-7.56 17.15 17.15 0 0 0-2.56-4.38Zm3.73 125.23h-.5v57.3c0 1.04 1.1 2.1 2.62 2H172c.73 0 1.34-.27 1.78-.64.41-.36.72-.86.72-1.36v-57.3h-19.9ZM184.7 489c0-1-.85-1.7-1.7-1.7h-22.8c-1 0-1.7.85-1.7 1.7 0 1 .85 1.7 1.7 1.7H183c1 0 1.7-.85 1.7-1.7Zm-27-16.4c0 1.78 1.42 3.2 3.2 3.2h21.4c1.78 0 3.2-1.42 3.2-3.2V213.8c0-1.78-1.42-3.2-3.2-3.2h-21.4a3.19 3.19 0 0 0-3.2 3.2v258.8Zm124.1-346.07.03.47h1.27a6.53 6.53 0 0 1 2.1 4.7v60c0 .23.07.49.16.74.1.27.22.58.39.92.32.69.78 1.54 1.33 2.5a254.58 254.58 0 0 0 4 6.72c1.44 2.42 2.89 4.85 3.97 6.88.54 1.01.98 1.91 1.29 2.66.32.76.46 1.29.46 1.58v259.6c0 3.75-3.5 6.92-8.57 7.6l-.43.06v5.64h4.5c2.44 0 4.2 1.58 4.2 3.2s-1.76 3.2-4.2 3.2h-71.8c-2.44 0-4.2-1.58-4.2-3.2s1.76-3.2 4.2-3.2h4.7v-5.64l-.44-.06c-4.85-.58-8.36-3.84-8.36-7.6V213.7c0-.32.14-.85.46-1.61.3-.74.75-1.62 1.3-2.62a158.56 158.56 0 0 1 4.31-7.26c1.33-2.16 2.65-4.3 3.65-6.08.55-.97 1.01-1.85 1.34-2.59.31-.7.54-1.36.54-1.84v-60c0-1.78.77-3.4 2.1-4.7h1.27l.03-.47c1.9-31.29 5.35-62.76 9.8-86.41 2.23-11.83 4.71-21.68 7.37-28.56 1.32-3.44 2.68-6.1 4.06-7.91C254.02 1.84 255.35 1 256.6 1s2.58.84 3.97 2.65c1.38 1.8 2.75 4.47 4.08 7.91 2.66 6.88 5.15 16.73 7.38 28.56 4.47 23.65 7.92 55.12 9.77 86.41ZM257.17 6.17l-.87-.97v1.3c0 7.16-.06 14.7-.14 24.59l-.11 14.78c-.13 17.85-.25 42.38-.25 79.43v.5h21.63l-.03-.53c-2.1-34.57-5.58-62.56-9.3-82.79-1.87-10.1-3.8-18.28-5.66-24.37a69.09 69.09 0 0 0-2.71-7.56 17.12 17.12 0 0 0-2.56-4.38Zm3.73 125.23h-.5v57.3c0 1.04 1.1 2.1 2.62 2h15.28a2.7 2.7 0 0 0 1.77-.64c.42-.36.73-.86.73-1.36v-57.3h-19.9ZM291.1 489c0-1-.85-1.7-1.7-1.7h-22.8c-1 0-1.7.85-1.7 1.7 0 1 .85 1.7 1.7 1.7h22.8c1 0 1.7-.85 1.7-1.7Zm-27-16.4c0 1.78 1.42 3.2 3.2 3.2h21.4c1.78 0 3.2-1.42 3.2-3.2V213.8c0-1.78-1.42-3.2-3.2-3.2h-21.4a3.19 3.19 0 0 0-3.2 3.2v258.8Z"/>
      </svg>